
	<svg xmlns="http://www.w3.org/2000/svg" xmlns:xlink="http://www.w3.org/1999/xlink" version="1.1" width="128" height="128" viewBox="0 0 100 100">



		        <defs>
		            
	<linearGradient id="picture-gradient" x1="0" y1="0" y2="1" x2="0" >
		<stop stop-color="#888888" offset="0%"/>
		<stop stop-color="#888888" offset="100%"/>
	</linearGradient>

		        </defs>

            <g transform="
                    translate(50 50)
                    translate(0 0)  scale(0.5)  
                    translate(-50 -50)
                    ">

            <g fill="url(#picture-gradient)">

                <g transform="scale(3.125) translate(2.5 0)" id="picture"><path d="M26.7 8.8L18.5.3c-.2-.2-.4-.3-.7-.3H4c-.6 0-1 .4-1 1v10c0 .6.4 1 1 1s1-.4 1-1V2h11v8c0 .6.4 1 1 1h8v19H9.5c-.6 0-1 .4-1 1s.4 1 1 1H26c.6 0 1-.4 1-1V9.5c0-.2-.1-.5-.3-.7zM18 2.7L24.1 9H18V2.7z M13.5 12.2l-3.8-2.1c-.2-.1-.5-.1-.7-.1-.3.1-.5.3-.6.5L.3 25.7c-.1.1-.1.3-.1.4L0 31c0 .4.2.7.5.9.2.1.3.1.5.1s.4-.1.6-.2L5.5 29l.3-.3 8.1-15.2c.2-.5.1-1.1-.4-1.3zm-9 14.6l-2-1 5.6-10.5 2 1-5.6 10.5zm-2.4-.1l1.8.9L2.1 29v-2.3zm8.5-11.2l-2-1 1.1-2.1 2 1.1-1.1 2z"/></g>

            </g>

            </g>


	</svg>
