
	<svg xmlns="http://www.w3.org/2000/svg" xmlns:xlink="http://www.w3.org/1999/xlink" version="1.1" width="128" height="128" viewBox="20 20 60 60">


		<defs>
			false

	<linearGradient id="background-gradient" x1="0" y1="0" y2="1" x2="0" >
		<stop stop-color="#fff" offset="0%"/>
		<stop stop-color="#000" offset="100%"/>
	</linearGradient>



			<g transform="scale(3.115264945592432) translate(0.10000172257423401 3.049999237060547)" id="picture"><path d="M22 7c0 1.7 1.3 3 3 3s3-1.3 3-3-1.3-3-3-3-3 1.3-3 3zm4 0c0 .6-.4 1-1 1s-1-.4-1-1 .4-1 1-1 1 .4 1 1z M31.7 4.7L27.3.3c-.2-.2-.4-.3-.7-.3l-4.7.3c-.1 0-.3.1-.4.1l-.1-.1c-.3-.2-.5-.3-.8-.3l-4.7.3c-.2 0-.5.1-.6.3l-15 15c-.4.4-.4 1 0 1.4L9 25.7c.2.2.5.3.7.3s.5-.1.7-.3l2.3-2.3 2.3 2.3c.2.2.5.3.7.3s.5-.1.7-.3l15-15c.2-.2.3-.4.3-.6l.3-4.7c0-.3-.1-.5-.3-.7zm-22 18.9l-7.3-7.3 14-14 3.4-.2L6.3 15.6c-.4.4-.4 1 0 1.4l5 5-1.6 1.6zm20-14l-14 14-2.3-2.3-5-5 14-14 3.8-.3L30 5.8l-.3 3.8z"/></g>

	<linearGradient id="picture-gradient" x1="0" y1="0" y2="1" x2="0" >
		<stop stop-color="#888" offset="0%"/>
		<stop stop-color="#888" offset="100%"/>
	</linearGradient>

		</defs>



			<use xlink:href="#background" fill="url(#background-gradient)" />



			<g mask="url(#mask)">
				<g transform="
				        translate(
                                50 50
)
                            translate(0 0)  scale(0.5)
                            translate(
                                -50 -50
)">
						<use xlink:href="#picture" fill="url(#picture-gradient)"  />
				</g>
			</g>





	</svg>
